<svg id="Layer_1" data-name="Layer 1" xmlns="http://www.w3.org/2000/svg" viewBox="0 0 4923.25 1000"><defs><style>.cls-1{fill:#eeeeef;}</style></defs><title>Artboard 2 copy</title><path class="cls-1" d="M899.85,637.39l216.08-273.33H905.3V289.2h320.37V360L1006.79,637.39h219.45V712H899.85Z"/><path class="cls-1" d="M1485.59,405.67q32.72,14.65,54,46.24,19.2,27.87,24.91,64.63,3.3,21.56,2.69,62.05H1339.53q1.9,47,32.69,66,18.73,11.76,45.07,11.75,27.93,0,45.39-14.34,9.51-7.74,16.82-21.51H1563q-3.3,27.82-30.3,56.5-42,45.62-117.61,45.61-62.41,0-110.12-38.47t-47.71-125.16q0-81.23,43.07-124.58T1412.07,391Q1452.89,391,1485.59,405.67Zm-122.28,70.61q-17.32,17.87-21.77,48.39h140.82q-2.23-32.55-21.78-49.4t-48.48-16.85Q1380.63,458.42,1363.31,476.28Z"/><path class="cls-1" d="M1801.15,399.33h87.76L1776,712h-86.19L1577.72,399.33h91.78l65.11,230.6Z"/><path class="cls-1" d="M2388.84,529q-37.12,31-106,31h-88V712H2107V289.2h181.52q62.76,0,100.09,32.7T2426,423.14Q2426,498,2388.84,529Zm-67.43-152.29q-16.77-14.06-47-14.06h-79.61V487.1h79.61q30.24,0,47-15.2t16.79-48.19Q2338.2,390.74,2321.41,376.68Z"/><path class="cls-1" d="M2745,673.71q-39.59,48.85-120.17,48.86T2504.7,673.71q-39.59-48.86-39.58-117.64,0-67.62,39.58-117.2t120.17-49.57q80.58,0,120.17,49.57t39.58,117.2Q2784.62,624.86,2745,673.71Zm-65.39-45.18q19.21-25.49,19.21-72.46t-19.21-72.31q-19.21-25.33-55.07-25.34t-55.21,25.34Q2550,509.11,2550,556.07t19.36,72.46q19.37,25.5,55.21,25.49T2679.65,628.53Z"/><path class="cls-1" d="M2997.78,399.05q29.79,12.33,48.12,45.31v-45h79.74V695.89q0,60.51-20.37,91.21-35,52.77-134.22,52.77-60,0-97.81-23.52t-41.87-70.26h88.91q3.45,14.32,11.19,20.65,13.19,11.18,44.45,11.18,44.16,0,59.08-29.54,9.75-18.93,9.76-63.67V664.63q-11.78,20.08-25.24,30.12-24.39,18.64-63.39,18.64-60.23,0-96.22-42.3t-36-114.59q0-69.69,34.66-117.16t98.25-47.46Q2980.31,391.88,2997.78,399.05Zm27.84,224.14q19.71-21.66,19.71-69,0-44.44-18.71-67.69t-50.12-23.23q-42.84,0-59.12,40.44-8.58,21.51-8.57,53.06,0,27.26,9.14,48.47,16.56,39.59,59.41,39.58Q3005.91,644.84,3025.62,623.19Z"/><path class="cls-1" d="M3375.59,392q1.57.15,7,.43V476.2c-5.17-.58-9.75-1-13.77-1.15s-7.27-.29-9.75-.29q-49.33,0-66.25,32.13-9.46,18.06-9.47,55.64V712h-82.31V399.33h78v54.5q18.93-31.26,33-42.74,23-19.2,59.66-19.21C3373.25,391.88,3374.54,391.93,3375.59,392Z"/><path class="cls-1" d="M3634.23,405.67q32.71,14.65,54,46.24,19.22,27.87,24.91,64.63,3.3,21.56,2.69,62.05H3488.16q1.9,47,32.69,66,18.74,11.76,45.07,11.75,27.93,0,45.39-14.34,9.53-7.74,16.82-21.51h83.46q-3.3,27.82-30.31,56.5-42,45.62-117.61,45.61-62.41,0-110.12-38.47t-47.7-125.16q0-81.23,43.06-124.58T3560.71,391Q3601.51,391,3634.23,405.67ZM3512,476.28q-17.34,17.87-21.78,48.39H3631q-2.22-32.55-21.77-49.4t-48.48-16.85Q3529.27,458.42,3512,476.28Z"/><path class="cls-1" d="M4024.12,436.91q35.09,44.46,35.08,114.72,0,72.86-34.6,120.75T3928,720.27q-38.93,0-62.56-15.48-14.13-9.18-30.56-32.13V712h-80.59V289.77h81.74V440.06q15.58-21.8,34.35-33.27,22.23-14.34,56.58-14.34Q3989,392.45,4024.12,436.91ZM3955.8,627.35q17.64-25.53,17.64-67.12,0-33.26-8.67-55.06-16.48-41.31-60.73-41.3-44.82,0-61.6,40.44-8.67,21.51-8.67,55.64,0,40.15,17.93,66.54t54.65,26.38Q3938.17,652.87,3955.8,627.35Z"/><path class="cls-1" d="M4200,362.05h-82.89V286.62H4200Zm-82.89,37.28H4200V712h-82.89Z"/><path class="cls-1" d="M4531.27,417.26q30.7,25.38,30.7,84.18V712h-83.74V521.8q0-24.66-6.55-37.86-12-24.09-45.55-24.09-41.29,0-56.66,35.28-8,18.64-8,47.61V712h-81.75v-312h79.16v45.6q15.7-24.09,29.71-34.7,25.13-18.93,63.69-18.93Q4500.56,391.88,4531.27,417.26Z"/><polyline class="cls-1" points="650.75 341.01 650.8 765.29 745.35 765.29 745.35 220.13 636.94 220.13 171.27 775.79 248.92 825.26"/></svg>