<svg id="Layer_1" data-name="Layer 1" xmlns="http://www.w3.org/2000/svg" viewBox="0 0 100 100"><defs><style>.cls-1{fill:#4d4d4d;}</style></defs><title>Artboard 4</title><path class="cls-1" d="M88,63.32a3,3,0,0,1-2.36.75l-16.75-2A3,3,0,0,1,66.22,59c0-.06.09-5.28-2.82-6.18s-5.49-.87-11.36-.87c-4.82,0-9.37,0-11,.74-3.12,1.39-3.21,5.12-3.21,5.25a3,3,0,0,1-2.65,3l-16.75,2A3,3,0,0,1,16,62.13a3,3,0,0,1-1-2.29c0-1.93.34-11.77,2-15.61,2.69-6.28,24.75-8.32,35-8.32s32.31,2,35,8.32C88.69,48.08,88.93,58.91,89,61A3,3,0,0,1,88,63.32ZM82.29,47.41C81,44.33,65.79,40.91,50,40.91c-16,0-30.93,3.42-32.25,6.5-1.5,3.5-1.75,14.5-1.75,14.5l16.75-2s0-5.76,5-8c2.25-1,6.64-1,12.25-1,6,0,9,0,12.25,1,5.25,1.62,4.92,9.18,4.92,9.18l16.75,2S83.79,50.91,82.29,47.41Z"/><path d="M50,37.91c-10.26,0-32.32,2-35,8.32-1.65,3.84-1.95,13.68-2,15.61a3,3,0,0,0,3.35,3l16.75-2a3,3,0,0,0,2.65-3c0-.13.09-3.86,3.21-5.25,1.67-.74,6.22-.74,11-.74,5.87,0,8.54,0,11.36.87S64.22,60.9,64.22,61a3,3,0,0,0,2.64,3.11l16.75,2A3,3,0,0,0,87,63c0-2.13-.27-13-1.92-16.81C82.35,40,60.29,37.91,50,37.91ZM20.46,48.81c2-1.78,14.39-4.9,29.58-4.9S77.55,47,79.61,48.81c.64,1.81,1.06,6.64,1.25,10.88L70.07,58.41c-.51-3.6-2.32-7.95-6.9-9.37h0c-3.68-1.13-7-1.13-13.13-1.13s-10.64,0-13.47,1.26a11.33,11.33,0,0,0-6.42,8l-11,1.31C19.4,54.75,19.84,50.53,20.46,48.81Z"/></svg>