<svg id="Artboard_I" data-name="Artboard I" xmlns="http://www.w3.org/2000/svg" viewBox="0 0 172.2 338.95"><defs><style>.cls-1{fill:#4d4d4d;}.cls-2{fill:#ccbaad;}.cls-3{fill:#b0a095;}.cls-4{fill:#818fa8;}.cls-5{fill:#666;}</style></defs><title>Artboard 14</title><g id="Mermaid"><path class="cls-1" d="M74,58.8v-10l-2-14-4-12-1-5-2-3-6-4-9-4-16,3-6,9-7,9s-7.07,21.63-4,28c1.52,3.13,12,7,12,7"/><polygon class="cls-2" points="31 137.8 43 137.8 49 140.8 56 144.8 59 140.8 63 137.8 71.89 132.14 75 130.8 74 124.8 73 119.8 82 116.8 86 89.8 86 78.8 86 75.8 86 66.8 83 61.8 77 60.8 60 58.8 57 57.8 32 64.8 23 66.8 13 72.8 11 77.8 11 86.8 11 95.8 11 101.8 11 106.8 13 111.8 16 118.8 17 121.8 19 125.8 21 129.8 29 125.8 32 125.8 31 137.8"/><polygon class="cls-2" points="29 30.8 30 39.8 32 43.8 34 48.8 38 50.8 39 52.8 41 55.8 39 57.8 38 60.8 32 64.8 61.75 59.18 57 57.8 57 52.8 60 49.8 62 47.8 62 43.8 65 39.8 65 35.8 65 31.8 65 29.8 62 29.8 54 27.8 53 25.8 51 25.8 49 26.8 41 27.8 35 30.8 31 30.8 29 30.8"/><path class="cls-3" d="M33,130.8s-1,1,6,1a20.9,20.9,0,0,0,15-6c3-3,6-14,6-14l-6,2-5,3-6,2-4,3-5,3v3Z"/><polyline class="cls-3" points="26 105.8 26 114.8 26 118.8 33 111.8 34 108.8 30 108.8"/><path class="cls-3" d="M29.94,35.44a40.66,40.66,0,0,1,13.5-2.91,13,13,0,0,0,3.77-.63c.73-.28,1.76-1.34,2.36-1.4,1.46-.15,3.47,1.9,5.11,2.25,3.2.68,6.77.52,10,.74,1.93.13,1.92-2.87,0-3-4.66-.32-8.26-.32-12.32-2.71-1.75-1-1.77-1.35-3.77-.5-2.31,1-2.75,2-5.17,2.25-1.7.16-3.4.15-5.1.39a39,39,0,0,0-9.92,2.93c-1.77.76-.24,3.35,1.52,2.59Z"/><polygon class="cls-4" points="30.5 137.3 41.5 138.3 48.5 140.3 52.51 142.61 56.5 145.3 57.88 142.3 61.49 139.18 65.98 135.78 70.08 133.29 75.5 131.3 76.5 133.3 80.5 133.3 86.5 133.3 90.5 135.3 92.5 138.3 101.5 146.3 106.5 153.3 113.5 162.3 119.5 175.3 124.5 188.3 127.5 214.3 129.5 236.3 129.5 254.3 126.5 269.3 125.5 278.3 129.5 286.3 135.5 294.3 143.5 303.3 149.5 311.3 153.5 318.3 152.5 322.3 147.5 316.3 133.5 306.3 124.5 303.3 118.5 303.3 115.5 305.3 109.5 310.3 102.5 315.3 96.5 325.3 93.5 329.3 93.5 317.3 95.5 307.3 99.5 296.3 103.5 286.3 106.5 281.3 98.5 256.3 95.5 243.3 87.5 199.3 83.5 197.3 67.5 194.3 49.5 186.3 40.5 179.3 30.5 166.3 27.5 155.3 27.5 141.3 30.5 137.3"/><path class="cls-5" d="M39.68,55.75C33.61,67.87,14.4,63.42,10,77.54c-.58,1.84,2.32,2.63,2.89.79,4-12.87,23.36-9,29.38-21.06.86-1.73-1.73-3.25-2.59-1.52Z"/><path class="cls-5" d="M10.23,79.79C9,97.91,8.47,117.72,21.69,131.92c1.32,1.41,3.44-.71,2.12-2.12C11.2,116.25,12.1,97,13.23,79.79c.12-1.93-2.88-1.92-3,0Z"/><path class="cls-5" d="M24.89,115a1.5,1.5,0,0,0,0-3,1.5,1.5,0,0,0,0,3Z"/><path class="cls-5" d="M58.09,108.72c-10.69,8.76-23.3,14.42-35.85,20-1.77.77-.24,3.36,1.51,2.59,12.82-5.66,25.55-11.48,36.46-20.42,1.5-1.23-.63-3.34-2.12-2.13Z"/><path class="cls-5" d="M55.36,55.78a20.2,20.2,0,0,0,1.38,11.69c.76,1.77,3.35.24,2.59-1.52a16.53,16.53,0,0,1-1.08-9.37c.33-1.89-2.56-2.7-2.89-.8Z"/><path class="cls-5" d="M41.4,57.71a29.61,29.61,0,0,1-4.32,12c-1,1.64,1.56,3.14,2.59,1.51a31.56,31.56,0,0,0,4.62-12.69c.26-1.89-2.63-2.71-2.89-.8Z"/><path class="cls-5" d="M59.78,60.83c2.29-.12,21.37.21,21.29,1.47-.12,1.93,2.88,1.93,3,0,.21-3.31-5-3.31-7.16-3.65a83.9,83.9,0,0,0-17.13-.82c-1.92.09-1.93,3.09,0,3Z"/><path class="cls-5" d="M81.14,63a14.14,14.14,0,0,0-5.72,9.4c-.26,1.89,2.63,2.71,2.9.8a11.27,11.27,0,0,1,4.33-7.61c1.53-1.15,0-3.75-1.51-2.59Z"/><path class="cls-5" d="M27.88,31.73c-1.43,10.59,5.2,18.48,12.64,25.13,1.44,1.28,3.57-.84,2.12-2.13C36.18,49,29.51,41.94,30.77,32.52c.26-1.88-2.63-2.7-2.89-.79Z"/><path class="cls-5" d="M58.24,54.25c4.06-5.17,14.18-18.59,7.24-24.77-1.44-1.28-3.57.84-2.12,2.12,5,4.45-4.3,16.78-7.25,20.53-1.17,1.5.93,3.64,2.13,2.12Z"/><path class="cls-5" d="M25.62,34.55a27.25,27.25,0,0,1,9.93-3.86c3.27-.53,6.45.24,9.67-.11,4.23-.47,5.91-3.63,7-7.41l-2.95-.4c-1,9.52,10,6.2,15.26,8.55,1.75.79,3.28-1.79,1.52-2.59-3.57-1.61-14.41.09-13.78-6,.18-1.72-2.49-2-3-.4-2,6.89-8.58,4.58-13.79,5.32A29.58,29.58,0,0,0,24.11,32c-1.64,1-.14,3.61,1.51,2.59Z"/><path class="cls-5" d="M27.17,15.75C20,23.14,16.36,33.08,15.27,43.24c-.51,4.69-.51,10,2.13,14.11,2.54,4,7,5.38,11.31,6.48,1.88.47,2.68-2.42.8-2.9-5.06-1.27-9.47-3.1-11-8.54-1.18-4.22-.43-9.16.39-13.35,1.53-7.93,4.67-15.33,10.37-21.17,1.35-1.38-.77-3.5-2.13-2.12Z"/><path class="cls-5" d="M75.89,55.39a110.82,110.82,0,0,0-3.71-25.8C70.42,23.1,68.46,15,62.87,10.64c-10.4-8.12-28.77-7.51-35.31,5-.89,1.71,1.7,3.23,2.6,1.51,6.48-12.45,28-11.48,34.6.42,6.06,10.89,7.77,25.59,8.13,37.79,0,1.93,3,1.94,3,0Z"/><path class="cls-5" d="M46.27,38.33a5.36,5.36,0,0,0,3.07,5.15,1.5,1.5,0,1,0,1.51-2.59,2.49,2.49,0,0,1-1.58-2.56,1.51,1.51,0,0,0-1.5-1.5,1.53,1.53,0,0,0-1.5,1.5Z"/><path class="cls-5" d="M32.64,139.25A42.87,42.87,0,0,1,53.4,145a1.5,1.5,0,0,0,1.52-2.59,46.24,46.24,0,0,0-22.28-6.15c-1.93,0-1.93,3,0,3Z"/><path class="cls-5" d="M73.67,130.22c-6.33,2.65-14.82,6.54-17.23,13.55-.63,1.83,2.26,2.62,2.89.8,2-5.79,9.91-9.27,15.14-11.46,1.75-.73,1-3.64-.8-2.89Z"/><path class="cls-5" d="M19.75,82.06Q22.59,98.23,24,114.59c.16,1.91,3.16,1.93,3,0q-1.46-16.75-4.37-33.33c-.33-1.89-3.22-1.09-2.89.8Z"/><path class="cls-5" d="M27.59,119.74c5.77-9.41,17-10.76,27.08-11.4,1.92-.12,1.93-3.12,0-3-11.2.72-23.31,2.5-29.67,12.88-1,1.65,1.58,3.16,2.59,1.52Z"/><path class="cls-5" d="M24.64,81A38.88,38.88,0,0,1,39.1,79.34c1.93.13,1.92-2.87,0-3a41.09,41.09,0,0,0-15.26,1.8c-1.84.57-1.05,3.47.8,2.89Z"/><path class="cls-5" d="M27.84,84.35a24.55,24.55,0,0,0,13.93-4c1.61-1,.1-3.65-1.52-2.59a21.64,21.64,0,0,1-12.41,3.63,1.5,1.5,0,0,0,0,3Z"/><path class="cls-5" d="M58.29,74.46c4.47-.4,8.72-4.49,13.2-3.69,1.88.34,2.69-2.56.79-2.89-5.28-.95-9,3.13-14,3.58-1.91.18-1.93,3.18,0,3Z"/><path class="cls-5" d="M82.37,63.55c1.94.3,2.21,8.48,2.28,10.45.47,14.09-1.89,28.37-4.19,42.21-.31,1.89,2.58,2.7,2.89.79,2.48-14.88,5.35-30.61,4.15-45.77-.21-2.69-.5-10-4.33-10.58-1.89-.29-2.71,2.6-.8,2.9Z"/><path class="cls-5" d="M24.16,91.92c-.73,4.5-1.42,9.33,1,13.47,2.14,3.68,5.77,4.93,9.88,4.56,1.91-.17,1.93-3.17,0-3-8.91.79-9-7.71-8-14.23.31-1.89-2.58-2.7-2.89-.8Z"/><path class="cls-5" d="M31.82,125.9a79.91,79.91,0,0,0-2.62,12.32c-.21,1.92,2.79,1.9,3,0a74.79,74.79,0,0,1,2.51-11.53,1.5,1.5,0,0,0-2.89-.79Z"/><path class="cls-5" d="M72.49,76.35a16,16,0,0,1,1.66,11.37c-.41,1.88,2.48,2.68,2.89.8a19.2,19.2,0,0,0-2-13.69c-.93-1.69-3.52-.18-2.59,1.52Z"/><path class="cls-5" d="M71.25,92.76c-1.45,13-2.23,26.24,2.34,38.76.66,1.79,3.56,1,2.9-.8-4.49-12.27-3.66-25.2-2.24-38,.21-1.91-2.79-1.9-3,0Z"/><path class="cls-5" d="M51.17,121.07c.15.08.13.05-.05-.07s-.14-.21,0-.07c-.08-.21-.09-.24,0-.08,0-.23,0-.26,0-.09s0,.13,0-.1c-.05.16,0,.13,0-.08s.16-.19,0-.07c.17-.13.19-.16,0-.08l2.05.54-.64-1A1.5,1.5,0,0,0,50,121.51l.64,1a1.56,1.56,0,0,0,2.06.54,2.62,2.62,0,0,0,0-4.54,1.54,1.54,0,0,0-2,.54,1.51,1.51,0,0,0,.53,2Z"/><path class="cls-5" d="M27.11,140.93c-4,14.42,1.85,29.54,12.34,39.75,12.21,11.88,29.47,16.54,45.89,18.86,1.89.26,2.7-2.63.8-2.9-15-2.11-30.59-6-42.37-16.08C32.72,171.14,26,156.14,30,141.72a1.5,1.5,0,0,0-2.89-.79Z"/><path class="cls-5" d="M76.59,134.28C89,131.51,100.35,147,106.72,155.71a111.58,111.58,0,0,1,15.94,31.08c.6,1.83,3.5,1,2.89-.8a114.88,114.88,0,0,0-19.49-36c-7.07-8.79-17.55-21.42-30.27-18.58-1.88.42-1.08,3.32.8,2.9Z"/><path class="cls-5" d="M122.68,184.46c4,31.17,8,63,.78,94.08-.43,1.88,2.46,2.68,2.9.8,7.27-31.32,3.4-63.41-.68-94.88-.25-1.89-3.25-1.91-3,0Z"/><path class="cls-5" d="M104,283.56a87.88,87.88,0,0,0-12.31,47.28,1.52,1.52,0,0,0,2.8.76c5.6-10.78,12.4-22.12,24.33-26.61,1.79-.68,1-3.58-.8-2.9-12.75,4.8-20.11,16.41-26.12,28l2.79.75a85,85,0,0,1,11.9-45.76,1.5,1.5,0,0,0-2.59-1.52Z"/><path class="cls-5" d="M119.31,305.39c14.3-1.13,24.89,8.72,33.23,19.1,1.21,1.51,3.32-.63,2.12-2.12-8.83-11-20.29-21.17-35.35-20-1.91.16-1.92,3.16,0,3Z"/><path class="cls-5" d="M124.5,279.1c6.05,17.14,23.14,27.22,29.17,44.3.64,1.81,3.54,1,2.89-.8-6.05-17.14-23.14-27.22-29.17-44.3-.64-1.81-3.54-1-2.89.8Z"/><path class="cls-5" d="M86,198.9a471.18,471.18,0,0,0,19.08,83.42c.6,1.83,3.5,1,2.9-.8A470.33,470.33,0,0,1,88.86,198.1c-.25-1.9-3.14-1.09-2.89.8Z"/></g></svg>