<svg xmlns="http://www.w3.org/2000/svg" viewBox="0 0 435.26 137.45"><defs><style>.cls-1{fill:#b1baca;}</style></defs><title>Artboard 11</title><g id="Artboard_II" data-name="Artboard II"><path class="cls-1" d="M165.66,47.13c-.08-1.44-.12-2.94-.14-4.5s-.06-3.24-.09-5-.06-3.75-.06-5.85v-7c0-2.84,0-5.27.06-7.29a40.79,40.79,0,0,1,.33-4.95,7,7,0,0,1,.86-2.82,1.91,1.91,0,0,1,1.68-.9,2.75,2.75,0,0,1,1.81.66q.76.66.9,3.06.11,2.16.18,3.84c0,1.12.07,2.23.11,3.33s.07,2.24.07,3.42v7.11l12.83-14.7a23.49,23.49,0,0,1,3.91-3.81,4.48,4.48,0,0,1,2.4-.93,2.37,2.37,0,0,1,1.77.6,2.14,2.14,0,0,1,.57,1.5,2.28,2.28,0,0,1-.13.72,5.2,5.2,0,0,1-.51,1A14.21,14.21,0,0,1,191,16.08c-.51.62-1.22,1.41-2.09,2.37l-8.34,9.06,13.13,18.72a5.81,5.81,0,0,1,.75,1.38,3.74,3.74,0,0,1,.28,1.38,2.84,2.84,0,0,1-.64,1.89,2.72,2.72,0,0,1-2.18.75,3.84,3.84,0,0,1-2.25-.69,6.8,6.8,0,0,1-1.83-2L176.46,32.07l-5.16,5.64c0,1.52-.08,3-.11,4.56s-.11,3.12-.18,4.8a12.35,12.35,0,0,1-.27,2.22,3.05,3.05,0,0,1-.58,1.2,1.38,1.38,0,0,1-.8.51,5.59,5.59,0,0,1-1.06.09,2.37,2.37,0,0,1-1.79-.75A5.28,5.28,0,0,1,165.66,47.13Z"/><path class="cls-1" d="M202.74,8.85a3.69,3.69,0,0,1,2.55,1.08,3.39,3.39,0,0,1,1.17,2.58,3.21,3.21,0,0,1-1.2,2.49,4,4,0,0,1-2.7,1.05A3.37,3.37,0,0,1,200.2,15a3.42,3.42,0,0,1-1.12-2.61A3.29,3.29,0,0,1,200.2,9.9,3.58,3.58,0,0,1,202.74,8.85ZM200,47.13q-.12-2.22-.21-5.07c-.05-1.9-.09-4-.09-6.27q0-4.26.06-7.29a43.86,43.86,0,0,1,.33-5,7.33,7.33,0,0,1,.87-2.88,1.9,1.9,0,0,1,1.69-.93,2.55,2.55,0,0,1,1.79.72q.78.72.9,3.12.36,6.3.36,12.18,0,3-.12,5.61t-.24,5.73a11.63,11.63,0,0,1-.26,2.22,3.05,3.05,0,0,1-.58,1.2,1.41,1.41,0,0,1-.81.51,5.3,5.3,0,0,1-1,.09,2.41,2.41,0,0,1-1.81-.75A5.29,5.29,0,0,1,200,47.13Z"/><path class="cls-1" d="M227.29,25.29a10.52,10.52,0,0,0-4,.72,24.88,24.88,0,0,0-4,2.16v3.69q0,2.43-.06,5.28t-.12,5.61q-.06,2.76-.24,4.62c-.08.8-.17,1.43-.26,1.89a3.08,3.08,0,0,1-.42,1.05,1.15,1.15,0,0,1-.73.45,6.1,6.1,0,0,1-1.17.09,6.24,6.24,0,0,1-1.17-.09,1.34,1.34,0,0,1-.75-.42,2.54,2.54,0,0,1-.48-1,12.08,12.08,0,0,1-.29-1.8c-.09-.72-.16-1.68-.22-2.88s-.11-2.51-.15-3.93-.07-2.86-.09-4.32,0-2.81,0-4.05q0-3.06.09-5a33.69,33.69,0,0,1,.33-3.42,7,7,0,0,1,1-3.18,2.08,2.08,0,0,1,1.62-.66,2.86,2.86,0,0,1,2.25.84,4.74,4.74,0,0,1,.93,2.76,19.34,19.34,0,0,1,4.77-3.06,12.77,12.77,0,0,1,5.25-1.14,9.47,9.47,0,0,1,4.72,1.2,9,9,0,0,1,3.5,3.9,13.48,13.48,0,0,1,1.26,3.57,30.54,30.54,0,0,1,.6,4.11c0,.64.08,1.27.13,1.89s.06,1.28.09,2,0,1.49,0,2.37v3.12q0,1.92-.06,3.6a16.56,16.56,0,0,1-.32,2.91,4,4,0,0,1-.94,1.92,2.37,2.37,0,0,1-1.79.69c-1.85,0-2.81-.88-2.89-2.64V46.62c0-.9,0-1.95,0-3.15s-.05-2.42-.07-3.66-.05-2.26-.09-3.06q-.06-1-.15-2.07t-.24-2.25c-.1-.76-.23-1.49-.38-2.19a12,12,0,0,0-.61-1.89,4.41,4.41,0,0,0-2.1-2.52A6.77,6.77,0,0,0,227.29,25.29Z"/><path class="cls-1" d="M271.62,50.73a2.53,2.53,0,0,1-2-1,5.29,5.29,0,0,1-1.11-2.22,17,17,0,0,1-1.65,1.32A14.23,14.23,0,0,1,262.08,51a12.84,12.84,0,0,1-3.12.36,17.1,17.1,0,0,1-4.53-.69,13.09,13.09,0,0,1-8.34-7.05,16.44,16.44,0,0,1-1.47-7.38,18.49,18.49,0,0,1,1.14-6.72A13.68,13.68,0,0,1,249,24.6a13.83,13.83,0,0,1,4.92-3.06,17.83,17.83,0,0,1,6.21-1.05,12.79,12.79,0,0,1,4.56.66,8.23,8.23,0,0,1,2.64,1.56V19q0-2.07,0-4t.06-3.57q0-1.62.09-2.46a5.18,5.18,0,0,1,.72-2.79,3.36,3.36,0,0,1,4.23,0,5,5,0,0,1,.69,2.61q.06.78.09,2.1t0,2.88q0,1.56,0,3.15t0,2.88v3q0,6.12-.09,11.28t-.09,8.22a3.42,3.42,0,0,0,.51,1.26q.39.6.84,1.2a10.39,10.39,0,0,1,.81,1.26,2.84,2.84,0,0,1,.36,1.38,2.59,2.59,0,0,1-.42,1.47,3.75,3.75,0,0,1-1.05,1,5,5,0,0,1-1.32.63A4.28,4.28,0,0,1,271.62,50.73ZM260,45.45a7.24,7.24,0,0,0,5.7-2.22q2-2.22,2-7.32,0-9.78-7.74-9.78a11.3,11.3,0,0,0-3.48.54,8.24,8.24,0,0,0-3,1.68,8.65,8.65,0,0,0-2.1,2.88,9.74,9.74,0,0,0-.81,4.14,12.45,12.45,0,0,0,.57,3.78,9.43,9.43,0,0,0,1.74,3.21,8.48,8.48,0,0,0,2.94,2.25A9.64,9.64,0,0,0,260,45.45Z"/><path class="cls-1" d="M316.26,14.37q-1.68.12-3.57.18l-4.17.12q.06,1.62.12,3t.12,2.85q.06,1.44.09,3t0,3.48v5.19q0,2.49-.06,5t-.12,5q-.06,2.52-.18,5.22a10.75,10.75,0,0,1-.27,2.22,3.05,3.05,0,0,1-.57,1.2,1.44,1.44,0,0,1-.84.51,5.89,5.89,0,0,1-1.08.09,2.49,2.49,0,0,1-1.83-.75q-.75-.75-.87-3.21-.12-2.16-.15-4.56t-.09-5.16q-.06-2.76-.06-6V24.69q0-3.3,0-5.76t.15-4.26h-2.46q-2.52,0-4.29-.06a15.21,15.21,0,0,1-2.91-.33,3,3,0,0,1-1.65-.87,2.52,2.52,0,0,1-.51-1.68,3.84,3.84,0,0,1,.12-1,1.78,1.78,0,0,1,.54-.84A3.08,3.08,0,0,1,293,9.27a9.76,9.76,0,0,1,1.95-.36l2-.12,1.8-.12q.9-.06,1.86-.06h2.22q3.54,0,6.69.06t6.69.24a13.29,13.29,0,0,1,2.22.33,3.05,3.05,0,0,1,1.2.57,1.44,1.44,0,0,1,.51.84,5.89,5.89,0,0,1,.09,1.08,2.39,2.39,0,0,1-.75,1.8A5.29,5.29,0,0,1,316.26,14.37Z"/><path class="cls-1" d="M339.12,26.19a11.36,11.36,0,0,0-4,.66,37.79,37.79,0,0,0-4,1.8v1.14c0,.72,0,1.64,0,2.76s-.05,2.37-.07,3.75L331,40.44q0,2.07-.12,3.93l-.15,3.12a19.11,19.11,0,0,1-.27,2,3.3,3.3,0,0,1-.36,1.05.81.81,0,0,1-.57.39,4.67,4.67,0,0,1-.78.06,10.56,10.56,0,0,1-1.58-.09,1.74,1.74,0,0,1-.94-.42,1.86,1.86,0,0,1-.51-1,16.16,16.16,0,0,1-.27-1.8q-.12-1.14-.21-3.15t-.15-4.5q-.06-2.49-.09-5.31t0-5.58q0-2.76,0-5.85t.09-5.94q.06-2.85.12-5.1t.18-3.33a9.65,9.65,0,0,1,.57-2.7,1.92,1.92,0,0,1,2-1.14,2.49,2.49,0,0,1,2,.84,5.41,5.41,0,0,1,.88,3.18q.1,2.1.2,5.85t.15,8.43a10.79,10.79,0,0,1,2-1.23,17.26,17.26,0,0,1,2.52-1,23.75,23.75,0,0,1,2.71-.63,14.91,14.91,0,0,1,2.57-.24,9.13,9.13,0,0,1,5,1.35,9.46,9.46,0,0,1,3.39,3.87,14.22,14.22,0,0,1,1.26,3.57,32.23,32.23,0,0,1,.6,4.11c0,.64.08,1.27.13,1.89s.06,1.28.08,2,0,1.49,0,2.37v3.12q0,1.8-.06,3.33a13.55,13.55,0,0,1-.33,2.64,3.76,3.76,0,0,1-.87,1.74,2.21,2.21,0,0,1-1.68.63,2.71,2.71,0,0,1-2.31-1,3.81,3.81,0,0,1-.75-2.37V46.29q0-1.2,0-2.79l-.06-3.21q0-1.62-.09-2.64c0-.64-.09-1.33-.14-2.07s-.15-1.49-.25-2.25-.23-1.49-.39-2.19a11.05,11.05,0,0,0-.6-1.89,4.44,4.44,0,0,0-2.09-2.52A6.86,6.86,0,0,0,339.12,26.19Z"/><path class="cls-1" d="M361.5,8.85a3.69,3.69,0,0,1,2.55,1.08,3.39,3.39,0,0,1,1.17,2.58A3.21,3.21,0,0,1,364,15a4,4,0,0,1-2.7,1.05A3.41,3.41,0,0,1,359,15a3.45,3.45,0,0,1-1.11-2.61A3.31,3.31,0,0,1,359,9.9,3.6,3.6,0,0,1,361.5,8.85Zm-2.7,38.28q-.12-2.22-.21-5.07t-.09-6.27q0-4.26.06-7.29a43.86,43.86,0,0,1,.33-5,7.33,7.33,0,0,1,.87-2.88,1.89,1.89,0,0,1,1.68-.93,2.57,2.57,0,0,1,1.8.72q.78.72.9,3.12.36,6.3.36,12.18,0,3-.12,5.61t-.24,5.73a10.75,10.75,0,0,1-.27,2.22,3.05,3.05,0,0,1-.57,1.2,1.44,1.44,0,0,1-.81.51,5.41,5.41,0,0,1-1.05.09,2.39,2.39,0,0,1-1.8-.75A5.29,5.29,0,0,1,358.8,47.13Z"/><path class="cls-1" d="M386,25.29a10.51,10.51,0,0,0-4,.72,24.46,24.46,0,0,0-4,2.16v3.69q0,2.43-.06,5.28t-.12,5.61q-.06,2.76-.24,4.62a17.6,17.6,0,0,1-.27,1.89,2.73,2.73,0,0,1-.42,1.05,1.15,1.15,0,0,1-.72.45,7.65,7.65,0,0,1-2.34,0,1.34,1.34,0,0,1-.75-.42,2.4,2.4,0,0,1-.48-1,11.88,11.88,0,0,1-.3-1.8q-.12-1.08-.21-2.88T372,40.74q-.06-2.13-.09-4.32t0-4.05q0-3.06.09-5A31,31,0,0,1,372.3,24a6.82,6.82,0,0,1,1-3.18,2.08,2.08,0,0,1,1.62-.66,2.86,2.86,0,0,1,2.25.84,4.81,4.81,0,0,1,.93,2.76,19.34,19.34,0,0,1,4.77-3.06,12.74,12.74,0,0,1,5.25-1.14,9.43,9.43,0,0,1,4.71,1.2,9,9,0,0,1,3.51,3.9,14.22,14.22,0,0,1,1.26,3.57,32.23,32.23,0,0,1,.6,4.11q.06,1,.12,1.89t.09,2q0,1.05,0,2.37v3.12q0,1.92-.06,3.6a16.48,16.48,0,0,1-.33,2.91,3.93,3.93,0,0,1-.93,1.92,2.37,2.37,0,0,1-1.8.69q-2.76,0-2.88-2.64V46.62q0-1.35,0-3.15t-.06-3.66q0-1.86-.09-3.06-.06-1-.15-2.07t-.24-2.25q-.15-1.14-.39-2.19a11.05,11.05,0,0,0-.6-1.89,4.41,4.41,0,0,0-2.1-2.52A6.78,6.78,0,0,0,386,25.29Z"/><path class="cls-1" d="M417.18,59.07A9.51,9.51,0,0,0,422,58a8.44,8.44,0,0,0,3.15-3.18,15.05,15.05,0,0,0,1.71-5,38.29,38.29,0,0,0,.51-6.57,9.4,9.4,0,0,1-1.56,3.24,8.54,8.54,0,0,1-2.37,2.13,9.86,9.86,0,0,1-3,1.17,16.57,16.57,0,0,1-3.48.36,17.17,17.17,0,0,1-5.22-.78,11.31,11.31,0,0,1-4.29-2.46,11.89,11.89,0,0,1-2.91-4.29,16.37,16.37,0,0,1-1.08-6.27,19.41,19.41,0,0,1,1.05-6.51,14.54,14.54,0,0,1,3.06-5.13,13.87,13.87,0,0,1,4.89-3.36,17,17,0,0,1,6.6-1.2,15.41,15.41,0,0,1,3.51.36,12.49,12.49,0,0,1,2.73,1,9.48,9.48,0,0,1,2.13,1.44,16.13,16.13,0,0,1,1.71,1.8,18.18,18.18,0,0,1,3.3,6.81,38,38,0,0,1,1,9.45,52.12,52.12,0,0,1-.69,8.34A25.29,25.29,0,0,1,430.2,57a15.38,15.38,0,0,1-5,5.64,14.08,14.08,0,0,1-8.16,2.19q-.9,0-2-.09t-2.28-.27a18.31,18.31,0,0,1-2.31-.51,9.86,9.86,0,0,1-2.1-.87,12.29,12.29,0,0,1-1.92-1.26,2.44,2.44,0,0,1-.72-2,4.23,4.23,0,0,1,.51-2.07,1.85,1.85,0,0,1,1.77-.93,3,3,0,0,1,1.32.36,18.16,18.16,0,0,0,1.77.75,23.15,23.15,0,0,0,2.52.75A15.23,15.23,0,0,0,417.18,59.07Zm.3-14.4a8.46,8.46,0,0,0,4-.87,7.77,7.77,0,0,0,2.7-2.31,10.14,10.14,0,0,0,1.56-3.24,13.15,13.15,0,0,0,.51-3.6,12.23,12.23,0,0,0-.39-3,8.27,8.27,0,0,0-1.29-2.79,6.55,6.55,0,0,0-2.46-2,9.86,9.86,0,0,0-10.29,1.62q-2.43,2.4-2.43,7.08a9.79,9.79,0,0,0,2.16,6.78A7.59,7.59,0,0,0,417.48,44.67Z"/><path class="cls-1" d="M46,21.77a17.28,17.28,0,0,1-.18-2.15c0-.78,0-1.5,0-2.17s0-1.58.1-2.38a8.88,8.88,0,0,1,.6-2.66,5.92,5.92,0,0,1,.53-1,4,4,0,0,1,.75-.85A3.86,3.86,0,0,1,48.81,10a3.71,3.71,0,0,1,1.39-.24,3.82,3.82,0,0,1,1.75.57,4.72,4.72,0,0,1,.69.56,3.86,3.86,0,0,1,.64.84,6.05,6.05,0,0,1,.53,1.17,8.56,8.56,0,0,1,.35,1.54c.13,1.12.2,2.18.22,3.18s0,1.88,0,2.65-.11,1.71-.19,2.47a6.82,6.82,0,0,1-.62,2.09,7.21,7.21,0,0,1-.51.76,3.38,3.38,0,0,1-.69.67,3.31,3.31,0,0,1-.94.47,4,4,0,0,1-1.2.16,3.58,3.58,0,0,1-1.32-.22,3.94,3.94,0,0,1-1-.59,3.38,3.38,0,0,1-.74-.82,6.1,6.1,0,0,1-.52-.93A8.47,8.47,0,0,1,46,21.77Z"/><path class="cls-1" d="M80.37,22.32A5.74,5.74,0,0,1,79.58,24a6.55,6.55,0,0,1-1.13,1.21,6,6,0,0,1-1.33.82,11.92,11.92,0,0,1-1.41.5,12.27,12.27,0,0,1-3.53.38,6.77,6.77,0,0,1-2.37-.3,5.74,5.74,0,0,1-1.51-.73,4.11,4.11,0,0,1-1.08-1,4.83,4.83,0,0,1-.54-1.34,11.21,11.21,0,0,1-.26-1.5c0-.51-.07-1-.07-1.49V19.15c0-.85,0-1.63.07-2.34s.12-1.33.2-1.86a14.19,14.19,0,0,1,.26-1.68A4.25,4.25,0,0,1,67.29,12,4,4,0,0,1,68,11a3.7,3.7,0,0,1,.79-.66,3.9,3.9,0,0,1,.85-.41,5.73,5.73,0,0,1,2.19-.31,13.78,13.78,0,0,1,2.11.15,12.24,12.24,0,0,1,1.73.41A8.81,8.81,0,0,1,77,10.8c.4.22.77.45,1.09.67a6.69,6.69,0,0,1,1.73,1.85,8,8,0,0,1,.88,2.38c.08.38.15.81.21,1.28A12.63,12.63,0,0,1,81,18.53a16.77,16.77,0,0,1-.16,1.78A13.53,13.53,0,0,1,80.37,22.32Zm-6.65-4.9a1.08,1.08,0,0,0-.68.21.92.92,0,0,0-.28.8c0,.38.09.63.28.73a1.29,1.29,0,0,0,.68.16,1,1,0,0,0,.67-.24.83.83,0,0,0,.27-.65,1.09,1.09,0,0,0-.24-.69A.84.84,0,0,0,73.72,17.42Z"/><path class="cls-1" d="M94.77,23.85a5.67,5.67,0,0,1-.9,1.22,8,8,0,0,1-1,.85,5.4,5.4,0,0,1-1.13.65c-.32.12-.62.22-.92.3S90.26,27,90,27a4.05,4.05,0,0,1-.72.08A9,9,0,0,1,87,26.83a7.7,7.7,0,0,1-1.74-.68,5.69,5.69,0,0,1-1.26-1,5.47,5.47,0,0,1-.82-1.13A6.35,6.35,0,0,1,82.31,21a8.57,8.57,0,0,1,.3-2.41,6.64,6.64,0,0,1,.79-1.76,5.25,5.25,0,0,1,1.13-1.21,6.66,6.66,0,0,1,1.29-.77,8,8,0,0,1,3.5-.59,7,7,0,0,1,2,.26,6,6,0,0,1,1.55.7,4.72,4.72,0,0,1,1.1,1,5.73,5.73,0,0,1,.73,1.11,7.44,7.44,0,0,1,.77,3,9.11,9.11,0,0,1-.2,2A7.2,7.2,0,0,1,94.77,23.85Zm-5.59-3.79a.94.94,0,0,0-.71.32.78.78,0,0,0-.25.69.94.94,0,0,0,.3.7,1,1,0,0,0,.66.19,1,1,0,0,0,.67-.24.86.86,0,0,0,.26-.65,1.09,1.09,0,0,0-.24-.69A.82.82,0,0,0,89.18,20.06Z"/><path class="cls-1" d="M112.65,21.12a8.71,8.71,0,0,1-.27,2.57,6.25,6.25,0,0,1-.37,1,3.43,3.43,0,0,1-.61.92,4.29,4.29,0,0,1-.9.73,3.43,3.43,0,0,1-1.24.43,5.77,5.77,0,0,1-1,0,5.69,5.69,0,0,1-1-.2,3,3,0,0,1-1-.53,3.22,3.22,0,0,1-.78-1,3.87,3.87,0,0,1-.37-1.58c-.06-.63-.13-1.19-.19-1.68s-.17-.81-.27-1.17-.22-.54-.38-.54c.05.6.08,1.11.08,1.54s0,.8,0,1.1,0,.66,0,.92a3.91,3.91,0,0,1-.55,1.58,3.58,3.58,0,0,1-1.07,1.1,3.42,3.42,0,0,1-2,.53,3.87,3.87,0,0,1-1.07-.13,3,3,0,0,1-.83-.37,3.32,3.32,0,0,1-.63-.54,4.16,4.16,0,0,1-.47-.61,5.16,5.16,0,0,1-.65-1.68A10.89,10.89,0,0,1,96.86,22a13.66,13.66,0,0,1-.12-1.73,19,19,0,0,1,.09-2.3,5.36,5.36,0,0,1,.55-1.83,3.67,3.67,0,0,1,.44-.67,3.26,3.26,0,0,1,.62-.61,3,3,0,0,1,.83-.46,4.12,4.12,0,0,1,1.07-.23,6.16,6.16,0,0,1,1.74.1,3.83,3.83,0,0,1,1.11.44,2.44,2.44,0,0,1,.66.6c.15.22.28.42.4.62a7.62,7.62,0,0,1,3.93-1.11,4.4,4.4,0,0,1,1.49.33,3.55,3.55,0,0,1,1.36,1,6.11,6.11,0,0,1,1,1.91A12,12,0,0,1,112.65,21.12Z"/><path class="cls-1" d="M119.05,11.69a7.16,7.16,0,0,1-.06,1.65,4.89,4.89,0,0,1-.31,1.19,2.48,2.48,0,0,1-.49.8,2.42,2.42,0,0,1-2.21.8.65.65,0,0,1-.39-.17.6.6,0,0,1-.14-.24,1,1,0,0,1,0-.34.48.48,0,0,1,.29-.33A.46.46,0,0,1,116,15c.21,0,.32-.07.33-.22a3.17,3.17,0,0,0,0-.43,2.35,2.35,0,0,1-1.74-.79,2.68,2.68,0,0,1-.58-1.75,2.56,2.56,0,0,1,.65-1.79,2.35,2.35,0,0,1,1.87-.73,2.45,2.45,0,0,1,1.87.69A2.63,2.63,0,0,1,119.05,11.69Z"/><path class="cls-1" d="M124.77,12.65a5.22,5.22,0,0,1,.09-2.11,3.48,3.48,0,0,1,.34-.77,2,2,0,0,1,.6-.67,3,3,0,0,1,.94-.47,4.82,4.82,0,0,1,2.61,0,2.74,2.74,0,0,1,.93.49,3.29,3.29,0,0,1,.61.69,4.22,4.22,0,0,1,.38.77,5.53,5.53,0,0,1,.24,2.12,6.87,6.87,0,0,1,2.28.21,3.83,3.83,0,0,1,.84.35,2.88,2.88,0,0,1,.73.57,2.64,2.64,0,0,1,.52.86,3.28,3.28,0,0,1,.19,1.2,3.07,3.07,0,0,1-.18,1.11,2.54,2.54,0,0,1-.49.81,2.83,2.83,0,0,1-.7.55,4.23,4.23,0,0,1-.76.34,6.67,6.67,0,0,1-2.14.24,16.66,16.66,0,0,1,0,4,12,12,0,0,1-.3,1.47,4.75,4.75,0,0,1-.56,1.27,2.93,2.93,0,0,1-.92.9,2.45,2.45,0,0,1-1.32.35,3.5,3.5,0,0,1-2.31-.66,3.43,3.43,0,0,1-1.08-1.79,9,9,0,0,1-.26-2.59c0-1,.09-2,.17-3.1a7.21,7.21,0,0,1-2.42,0,4.63,4.63,0,0,1-.89-.29,2.45,2.45,0,0,1-1.31-1.37,3.35,3.35,0,0,1-.2-1.22,2.78,2.78,0,0,1,.44-1.63,3.22,3.22,0,0,1,1.12-1,4.75,4.75,0,0,1,1.43-.49A7.8,7.8,0,0,1,124.77,12.65Z"/><path class="cls-1" d="M20.63,50.83a4.51,4.51,0,0,1-1.86-.35,4.15,4.15,0,0,1-1.26-.87,3.89,3.89,0,0,1-.77-1.17,8.33,8.33,0,0,1-.39-1.2,6,6,0,0,1-.16-1c0-.28,0-.45,0-.52,0,.12-.05.32-.11.61a7.78,7.78,0,0,1-.79,2.2,4.67,4.67,0,0,1-.84,1.14,4.2,4.2,0,0,1-1.24.85,3.91,3.91,0,0,1-1.7.34,3.9,3.9,0,0,1-2.13-.57,6.47,6.47,0,0,1-1.5-1.25,8.42,8.42,0,0,1-1.2-1.85,17.13,17.13,0,0,1-1-3c-.23-1-.4-1.92-.51-2.74a24.74,24.74,0,0,1-.22-2.76A7.83,7.83,0,0,1,5,37a5,5,0,0,1,.38-1.29A3.53,3.53,0,0,1,6,34.76,3.74,3.74,0,0,1,8.61,33.5a3.94,3.94,0,0,1,1.87.42A4.13,4.13,0,0,1,11.82,35a5.72,5.72,0,0,1,.89,1.51,9.7,9.7,0,0,1,.52,1.64,14.24,14.24,0,0,1,.25,1.53c0,.47.08.85.1,1.14A4,4,0,0,1,14,39a2.76,2.76,0,0,1,.84-.93,2.18,2.18,0,0,1,1.2-.34,2.41,2.41,0,0,1,.93.17,2.44,2.44,0,0,1,.68.42,2.64,2.64,0,0,1,.49.57,3.39,3.39,0,0,1,.33.66,6.52,6.52,0,0,1,.29,1.8,16,16,0,0,1,.18-2.56,10.78,10.78,0,0,1,.48-1.94,6.21,6.21,0,0,1,.68-1.39,5.31,5.31,0,0,1,.79-.92,3.71,3.71,0,0,1,2.16-1,4.45,4.45,0,0,1,1.44.22,3.69,3.69,0,0,1,1.08.57,4,4,0,0,1,.77.82,4.4,4.4,0,0,1,.5,1,7.65,7.65,0,0,1,.51,2.64,21.19,21.19,0,0,1-.27,3.55,21.65,21.65,0,0,1-.6,2.74,17.27,17.27,0,0,1-.86,2.38,7.44,7.44,0,0,1-.68,1.2,6.67,6.67,0,0,1-.78.87,5.68,5.68,0,0,1-.83.63,5,5,0,0,1-.81.39A5,5,0,0,1,20.63,50.83Z"/><path class="cls-1" d="M33.88,38.33a5.45,5.45,0,0,1,2.09.13,4.13,4.13,0,0,1,1.28.61,2.5,2.5,0,0,1,.66.71c.13.23.2.37.22.42a2.55,2.55,0,0,1,.13-.35,3.45,3.45,0,0,1,.44-.71,3.08,3.08,0,0,1,.84-.68,2.68,2.68,0,0,1,1.32-.3,2.6,2.6,0,0,1,1.18.26,3.17,3.17,0,0,1,.89.7,4.77,4.77,0,0,1,.65,1A8.18,8.18,0,0,1,44,41.23a11.65,11.65,0,0,1,.45,3.05,14.18,14.18,0,0,1,0,2.39,10,10,0,0,1-.35,1.75,4.79,4.79,0,0,1-.54,1.22,3.53,3.53,0,0,1-.65.78,2.51,2.51,0,0,1-1.85.65,2.65,2.65,0,0,1-1.22-.22,2.71,2.71,0,0,1-.94-.65,2.44,2.44,0,0,1-.57-1.39A2.64,2.64,0,0,1,37.43,50a4.4,4.4,0,0,1-1.49.74,6,6,0,0,1-2.54.12,5.45,5.45,0,0,1-2.3-.76,4.74,4.74,0,0,1-.86-.68,4.13,4.13,0,0,1-.74-1,5.75,5.75,0,0,1-.52-1.4,8.14,8.14,0,0,1-.19-1.82A9.13,9.13,0,0,1,29.25,42a6.55,6.55,0,0,1,.57-1.24,4.87,4.87,0,0,1,2.24-2A5.59,5.59,0,0,1,33.88,38.33ZM37.07,44a1,1,0,0,0-.71.31.83.83,0,0,0-.25.7.93.93,0,0,0,.3.69,1.05,1.05,0,0,0,.66.19,1,1,0,0,0,.67-.24A.81.81,0,0,0,38,45a1.12,1.12,0,0,0-.24-.7A.82.82,0,0,0,37.07,44Z"/><path class="cls-1" d="M61.74,45.12a8.4,8.4,0,0,1-.26,2.57,7.41,7.41,0,0,1-.37,1,3.68,3.68,0,0,1-.61.92,4.29,4.29,0,0,1-.9.73,3.49,3.49,0,0,1-1.24.43,5.77,5.77,0,0,1-1,0,5.31,5.31,0,0,1-1-.2,2.89,2.89,0,0,1-1-.53,3,3,0,0,1-.78-1,3.72,3.72,0,0,1-.37-1.58c-.07-.63-.13-1.19-.2-1.68S53.9,45,53.8,44.6s-.22-.54-.38-.54c0,.6.07,1.11.08,1.54s0,.8,0,1.1,0,.66-.05.92a3.91,3.91,0,0,1-.55,1.58,3.7,3.7,0,0,1-1.07,1.1,3.43,3.43,0,0,1-2,.53,3.8,3.8,0,0,1-1.06-.13,2.87,2.87,0,0,1-.83-.37,3.73,3.73,0,0,1-.64-.54,5,5,0,0,1-.47-.61,5.15,5.15,0,0,1-.64-1.68A10.81,10.81,0,0,1,46,46c-.06-.48-.1-1.06-.12-1.73a21.56,21.56,0,0,1,.1-2.3,5.14,5.14,0,0,1,.55-1.83,4.19,4.19,0,0,1,.43-.67,3.65,3.65,0,0,1,.63-.61,3.11,3.11,0,0,1,.82-.46,4.21,4.21,0,0,1,1.07-.23,6.11,6.11,0,0,1,1.74.1,3.79,3.79,0,0,1,1.12.44,2.44,2.44,0,0,1,.66.6c.15.22.28.42.39.62a7.65,7.65,0,0,1,3.94-1.11,4.45,4.45,0,0,1,1.49.33,3.52,3.52,0,0,1,1.35,1,6.12,6.12,0,0,1,1.05,1.91A11.6,11.6,0,0,1,61.74,45.12Z"/><path class="cls-1" d="M66.76,36.65a5,5,0,0,1,.1-2.11,4,4,0,0,1,.33-.77,2.25,2.25,0,0,1,.6-.67,3.07,3.07,0,0,1,.94-.47,4.3,4.3,0,0,1,1.32-.18,4.14,4.14,0,0,1,1.29.18,2.74,2.74,0,0,1,.93.49,3,3,0,0,1,.61.69,4.22,4.22,0,0,1,.38.77,5.53,5.53,0,0,1,.24,2.12,6.87,6.87,0,0,1,2.28.21,3.83,3.83,0,0,1,.84.35,2.93,2.93,0,0,1,.74.57,2.8,2.8,0,0,1,.51.86,3.28,3.28,0,0,1,.19,1.2A3.07,3.07,0,0,1,77.88,41a2.54,2.54,0,0,1-.49.81,3,3,0,0,1-.69.55,4.65,4.65,0,0,1-.77.34,6.6,6.6,0,0,1-2.14.24,16.66,16.66,0,0,1,0,4,9.12,9.12,0,0,1-.3,1.47,4.45,4.45,0,0,1-.56,1.27,3,3,0,0,1-.91.9,2.45,2.45,0,0,1-1.32.35,3.51,3.51,0,0,1-2.32-.66,3.43,3.43,0,0,1-1.08-1.79,9,9,0,0,1-.25-2.59c0-1,.09-2,.17-3.1a7.27,7.27,0,0,1-2.43,0,4.87,4.87,0,0,1-.89-.29,2.48,2.48,0,0,1-.76-.53,2.26,2.26,0,0,1-.54-.84,3.14,3.14,0,0,1-.21-1.22,2.71,2.71,0,0,1,.45-1.63,3.11,3.11,0,0,1,1.11-1,4.85,4.85,0,0,1,1.43-.49A7.8,7.8,0,0,1,66.76,36.65Z"/><path class="cls-1" d="M93.18,36.65a5,5,0,0,1,.1-2.11,3.48,3.48,0,0,1,.34-.77,2,2,0,0,1,.6-.67,2.9,2.9,0,0,1,.93-.47,4.3,4.3,0,0,1,1.32-.18,4.21,4.21,0,0,1,1.3.18,2.69,2.69,0,0,1,.92.49,3,3,0,0,1,.61.69,5.07,5.07,0,0,1,.39.77,5.53,5.53,0,0,1,.24,2.12,6.87,6.87,0,0,1,2.28.21,3.83,3.83,0,0,1,.84.35,3.06,3.06,0,0,1,.73.57,2.64,2.64,0,0,1,.52.86,3.51,3.51,0,0,1,.19,1.2,3.07,3.07,0,0,1-.18,1.11,2.74,2.74,0,0,1-.49.81,3,3,0,0,1-.7.55,4.31,4.31,0,0,1-.77.34,6.57,6.57,0,0,1-2.13.24,17.76,17.76,0,0,1,0,4,12,12,0,0,1-.3,1.47,4.76,4.76,0,0,1-.57,1.27,2.9,2.9,0,0,1-.91.9,2.45,2.45,0,0,1-1.32.35,3.53,3.53,0,0,1-2.32-.66,3.43,3.43,0,0,1-1.08-1.79,9,9,0,0,1-.25-2.59c0-1,.09-2,.17-3.1a7.21,7.21,0,0,1-2.42,0,4.63,4.63,0,0,1-.89-.29,2.41,2.41,0,0,1-.77-.53,2.53,2.53,0,0,1-.54-.84,3.15,3.15,0,0,1-.2-1.22,2.71,2.71,0,0,1,.44-1.63,3.28,3.28,0,0,1,1.11-1,4.85,4.85,0,0,1,1.43-.49A8,8,0,0,1,93.18,36.65Z"/><path class="cls-1" d="M121.5,45.12a8.4,8.4,0,0,1-.26,2.57,7.41,7.41,0,0,1-.37,1,4,4,0,0,1-.61.92,4.29,4.29,0,0,1-.9.73,3.49,3.49,0,0,1-1.24.43,5.77,5.77,0,0,1-1,0,5.31,5.31,0,0,1-1-.2,2.8,2.8,0,0,1-1-.53,3,3,0,0,1-.78-1,3.72,3.72,0,0,1-.37-1.58c-.07-.63-.13-1.19-.2-1.68s-.16-.81-.26-1.17-.22-.54-.38-.54c0,.6.07,1.11.08,1.54s0,.8,0,1.1,0,.66,0,.92a4,4,0,0,1-.55,1.6,3.54,3.54,0,0,1-1.07,1.12,3.38,3.38,0,0,1-2,.49,3.26,3.26,0,0,1-2-.52,4.09,4.09,0,0,1-1.11-1.13A4.64,4.64,0,0,1,106,47.5c-.13-1-.23-2-.29-3.2,0-1-.06-2.18,0-3.54a44.3,44.3,0,0,1,.33-4.45,5,5,0,0,1,.52-1.92,3.65,3.65,0,0,1,.44-.69,2.62,2.62,0,0,1,.64-.6,3.18,3.18,0,0,1,.89-.42,3.93,3.93,0,0,1,3,.34,3.49,3.49,0,0,1,1.23,1.37,6.91,6.91,0,0,1,.66,2.14,13.9,13.9,0,0,1,.12,2.8,6.82,6.82,0,0,1,3.75-.81,4,4,0,0,1,1.42.43A3.74,3.74,0,0,1,120,40.07a6.77,6.77,0,0,1,1,2A12.84,12.84,0,0,1,121.5,45.12Z"/><path class="cls-1" d="M130.89,45.67a3.09,3.09,0,0,0,1.46.68c.51.09,1,.17,1.43.23a3.49,3.49,0,0,1,1.13.36,1.46,1.46,0,0,1,.59,1.11,2.65,2.65,0,0,1-.13.93,2.41,2.41,0,0,1-.49.83,2.55,2.55,0,0,1-1.09.71,10,10,0,0,1-2.28.43,13,13,0,0,1-2.4,0,10.11,10.11,0,0,1-2.81-.74A5.18,5.18,0,0,1,124.6,49a5.72,5.72,0,0,1-.61-.78,5.33,5.33,0,0,1-.53-1,6.72,6.72,0,0,1-.36-1.26,5.81,5.81,0,0,1-.08-1.53,8.23,8.23,0,0,1,.5-2.48,9.26,9.26,0,0,1,.48-1,5.85,5.85,0,0,1,.71-1,6,6,0,0,1,1-.89,5,5,0,0,1,1.31-.67,9.65,9.65,0,0,1,2.5-.39c.35,0,.73,0,1.13.06a6.68,6.68,0,0,1,1.23.24,6.83,6.83,0,0,1,1.24.52,6.15,6.15,0,0,1,1.19.84,4.37,4.37,0,0,1,.68.86,5.17,5.17,0,0,1,.45,1,5.46,5.46,0,0,1,.22,1.45,2.64,2.64,0,0,1-.42,1.54,2.71,2.71,0,0,1-1.1.91,4.41,4.41,0,0,1-1.54.37A6.39,6.39,0,0,1,130.89,45.67Zm-.63-3.05a.94.94,0,0,0-.7.32.82.82,0,0,0-.26.69,1,1,0,0,0,.3.7,1.05,1.05,0,0,0,.66.19,1,1,0,0,0,.68-.24.86.86,0,0,0,.26-.65,1.09,1.09,0,0,0-.24-.69A.83.83,0,0,0,130.26,42.62Z"/><path class="cls-1" d="M188.49,115.31q-1.92-2.64-3.63-5.25t-3.66-5.73q-1.95-3.12-4.44-6.93t-6-8.91v8.07q0,3.57-.06,6.63t-.12,5.76q-.06,2.7-.18,5.4a10.75,10.75,0,0,1-.27,2.22,3.05,3.05,0,0,1-.57,1.2,1.44,1.44,0,0,1-.81.51,5.41,5.41,0,0,1-1.05.09,2.39,2.39,0,0,1-1.8-.75,5.29,5.29,0,0,1-.84-3.21q-.3-6.6-.33-13.23t0-13.71q0-4,.09-6.3a15.39,15.39,0,0,1,.42-3.42,2.24,2.24,0,0,1,.9-1.44,3.3,3.3,0,0,1,1.53-.3,4.33,4.33,0,0,1,2.52,1.47,33.9,33.9,0,0,1,3.42,3.87q1.86,2.4,4,5.52t4.23,6.42q2.1,3.3,4,6.54t3.57,5.88q-.06-2.82-.06-6.21V92q0-4.74.06-7.83a39.88,39.88,0,0,1,.33-4.89,5.28,5.28,0,0,1,.87-2.52,2.07,2.07,0,0,1,1.68-.72,2.7,2.7,0,0,1,1.8.66q.78.66.9,3.06.12,2.16.18,3.84t.12,3.33q.06,1.65.06,3.42v9.15q0,2.46-.06,4.86t-.12,4.86q-.06,2.46-.18,5.16a10.75,10.75,0,0,1-.27,2.22,3.05,3.05,0,0,1-.57,1.2,1.44,1.44,0,0,1-.81.51,5.41,5.41,0,0,1-1,.09,2.63,2.63,0,0,1-1.74-.6A15.83,15.83,0,0,1,188.49,115.31Z"/><path class="cls-1" d="M205.77,76.13a3.69,3.69,0,0,1,2.55,1.08,3.39,3.39,0,0,1,1.17,2.58,3.21,3.21,0,0,1-1.2,2.49,4,4,0,0,1-2.7,1,3.41,3.41,0,0,1-2.37-1,3.45,3.45,0,0,1-1.11-2.61,3.31,3.31,0,0,1,1.11-2.49A3.6,3.6,0,0,1,205.77,76.13Zm-2.7,38.28q-.12-2.22-.21-5.07t-.09-6.27q0-4.26.06-7.29a43.86,43.86,0,0,1,.33-5,7.33,7.33,0,0,1,.87-2.88,1.89,1.89,0,0,1,1.68-.93,2.57,2.57,0,0,1,1.8.72q.78.72.9,3.12.36,6.3.36,12.18,0,3-.12,5.61t-.24,5.73a10.75,10.75,0,0,1-.27,2.22,3.05,3.05,0,0,1-.57,1.2,1.44,1.44,0,0,1-.81.51,5.41,5.41,0,0,1-1,.09,2.39,2.39,0,0,1-1.8-.75A5.29,5.29,0,0,1,203.07,114.41Z"/><path class="cls-1" d="M229.89,87.53a21,21,0,0,1,3.51.3,17.45,17.45,0,0,1,3.21.84A7.64,7.64,0,0,1,239,90a2.33,2.33,0,0,1,.9,1.8q0,2.64-3,2.64a4.24,4.24,0,0,1-1.35-.21q-.63-.21-1.47-.42t-2.1-.42a19.43,19.43,0,0,0-3.12-.21,7.39,7.39,0,0,0-6.12,2.7,10.89,10.89,0,0,0-2.16,7,12.27,12.27,0,0,0,2.19,7.62,7.34,7.34,0,0,0,6.21,2.88A16.16,16.16,0,0,0,233,113a11.8,11.8,0,0,0,2.55-1q1-.54,1.62-1a2.49,2.49,0,0,1,1.41-.42,2.89,2.89,0,0,1,1.71.45,2.14,2.14,0,0,1,.63,1.83,3.41,3.41,0,0,1-1.11,2.52,9.07,9.07,0,0,1-2.79,1.8,17,17,0,0,1-3.63,1.08,19.79,19.79,0,0,1-3.57.36q-7.26,0-11.4-4t-4.14-11.4a18.25,18.25,0,0,1,1-6,14,14,0,0,1,7.86-8.43A16.86,16.86,0,0,1,229.89,87.53Z"/><path class="cls-1" d="M259.89,107.09a31.22,31.22,0,0,1-4.41-.33,22,22,0,0,1-5-1.41,8,8,0,0,0,3,5.52q2.49,1.86,7.17,1.86a19.83,19.83,0,0,0,3-.21,23.44,23.44,0,0,0,2.37-.48l1.8-.48a5.57,5.57,0,0,1,1.44-.21,2.92,2.92,0,0,1,1.62.51,1.89,1.89,0,0,1,.78,1.71,3,3,0,0,1-1.23,2.46,9.62,9.62,0,0,1-3,1.53,18.6,18.6,0,0,1-3.75.78,33.49,33.49,0,0,1-3.48.21,21.07,21.07,0,0,1-6.51-1,14,14,0,0,1-5.13-2.91,13.28,13.28,0,0,1-3.36-4.83,19.31,19.31,0,0,1,0-13.32,14,14,0,0,1,3.21-4.86,13.5,13.5,0,0,1,4.83-3,17.43,17.43,0,0,1,6-1,18.14,18.14,0,0,1,4.89.66,13.13,13.13,0,0,1,4.2,2,10,10,0,0,1,2.94,3.33,9.59,9.59,0,0,1,1.11,4.71,8.54,8.54,0,0,1-.9,4.08,7,7,0,0,1-2.55,2.7,12.2,12.2,0,0,1-4,1.5A25.28,25.28,0,0,1,259.89,107.09Zm-.42-13.92a12.35,12.35,0,0,0-3.12.39,8.3,8.3,0,0,0-2.73,1.26,7.35,7.35,0,0,0-2.07,2.28,9.42,9.42,0,0,0-1.14,3.51,19.28,19.28,0,0,0,4.44,1.41,25.64,25.64,0,0,0,4.56.39,12.09,12.09,0,0,0,5.25-.87,3.22,3.22,0,0,0,1.71-3.15,5,5,0,0,0-1.59-3.66Q263.19,93.17,259.47,93.17Z"/><path class="cls-1" d="M316.35,81.65q-1.68.12-3.57.18l-4.17.12q.06,1.62.12,3l.12,2.85q.06,1.44.09,3t0,3.48V99.5q0,2.49-.06,5t-.12,5q-.06,2.52-.18,5.22a10.75,10.75,0,0,1-.27,2.22,3.05,3.05,0,0,1-.57,1.2,1.44,1.44,0,0,1-.84.51,5.89,5.89,0,0,1-1.08.09A2.49,2.49,0,0,1,304,118q-.75-.75-.87-3.21-.12-2.16-.15-4.56t-.09-5.16q-.06-2.76-.06-6V92q0-3.3,0-5.76T303,82h-2.46q-2.52,0-4.29-.06a15.21,15.21,0,0,1-2.91-.33,3,3,0,0,1-1.65-.87,2.52,2.52,0,0,1-.51-1.68,3.84,3.84,0,0,1,.12-1,1.78,1.78,0,0,1,.54-.84,3.08,3.08,0,0,1,1.17-.63,9.76,9.76,0,0,1,1.95-.36l2-.12,1.8-.12q.9-.06,1.86-.06h2.22q3.54,0,6.69.06t6.69.24a13.29,13.29,0,0,1,2.22.33,3.05,3.05,0,0,1,1.2.57,1.44,1.44,0,0,1,.51.84,5.89,5.89,0,0,1,.09,1.08,2.39,2.39,0,0,1-.75,1.8A5.29,5.29,0,0,1,316.35,81.65Z"/><path class="cls-1" d="M339.21,93.47a11.36,11.36,0,0,0-4,.66,37.79,37.79,0,0,0-4,1.8v1.14q0,1.08,0,2.76t-.06,3.75l-.06,4.14q0,2.07-.12,3.93l-.15,3.12a19.11,19.11,0,0,1-.27,2,3.3,3.3,0,0,1-.36,1,.81.81,0,0,1-.57.39,4.75,4.75,0,0,1-.78.06,10.8,10.8,0,0,1-1.59-.09,1.74,1.74,0,0,1-.93-.42,1.86,1.86,0,0,1-.51-1,16.16,16.16,0,0,1-.27-1.8q-.12-1.14-.21-3.15t-.15-4.5q-.06-2.49-.09-5.31t0-5.58q0-2.76,0-5.85t.09-5.94q.06-2.85.12-5.1t.18-3.33a9.31,9.31,0,0,1,.57-2.7,1.92,1.92,0,0,1,2-1.14,2.49,2.49,0,0,1,1.95.84,5.35,5.35,0,0,1,.87,3.18q.12,2.1.21,5.85t.15,8.43a10.79,10.79,0,0,1,2-1.23,17.26,17.26,0,0,1,2.52-1,24.08,24.08,0,0,1,2.7-.63,15.11,15.11,0,0,1,2.58-.24,9.16,9.16,0,0,1,5,1.35,9.46,9.46,0,0,1,3.39,3.87,14.22,14.22,0,0,1,1.26,3.57,32.23,32.23,0,0,1,.6,4.11l.12,1.89q.06.93.09,2t0,2.37v3.12q0,1.8-.06,3.33a13.55,13.55,0,0,1-.33,2.64,3.76,3.76,0,0,1-.87,1.74,2.21,2.21,0,0,1-1.68.63,2.71,2.71,0,0,1-2.31-1,3.81,3.81,0,0,1-.75-2.37v-1.26q0-1.2,0-2.79t-.06-3.21q0-1.62-.09-2.64t-.15-2.07q-.09-1.11-.24-2.25t-.39-2.19a11.05,11.05,0,0,0-.6-1.89,4.41,4.41,0,0,0-2.1-2.52A6.78,6.78,0,0,0,339.21,93.47Z"/><path class="cls-1" d="M361.59,76.13a3.69,3.69,0,0,1,2.55,1.08,3.39,3.39,0,0,1,1.17,2.58,3.21,3.21,0,0,1-1.2,2.49,4,4,0,0,1-2.7,1,3.41,3.41,0,0,1-2.37-1,3.45,3.45,0,0,1-1.11-2.61A3.31,3.31,0,0,1,359,77.18,3.6,3.6,0,0,1,361.59,76.13Zm-2.7,38.28q-.12-2.22-.21-5.07t-.09-6.27q0-4.26.06-7.29a43.86,43.86,0,0,1,.33-5,7.33,7.33,0,0,1,.87-2.88,1.89,1.89,0,0,1,1.68-.93,2.57,2.57,0,0,1,1.8.72q.78.72.9,3.12.36,6.3.36,12.18,0,3-.12,5.61t-.24,5.73a10.75,10.75,0,0,1-.27,2.22,3.05,3.05,0,0,1-.57,1.2,1.44,1.44,0,0,1-.81.51,5.41,5.41,0,0,1-1.05.09,2.39,2.39,0,0,1-1.8-.75A5.29,5.29,0,0,1,358.89,114.41Z"/><path class="cls-1" d="M386.13,92.57a10.51,10.51,0,0,0-4,.72,24.46,24.46,0,0,0-4,2.16v3.69q0,2.43-.06,5.28T378,110q-.06,2.76-.24,4.62a17.6,17.6,0,0,1-.27,1.89,2.73,2.73,0,0,1-.42,1,1.15,1.15,0,0,1-.72.45,7.65,7.65,0,0,1-2.34,0,1.34,1.34,0,0,1-.75-.42,2.4,2.4,0,0,1-.48-1,11.88,11.88,0,0,1-.3-1.8q-.12-1.08-.21-2.88t-.15-3.93q-.06-2.13-.09-4.32t0-4q0-3.06.09-5a31,31,0,0,1,.33-3.42,6.82,6.82,0,0,1,1-3.18,2.08,2.08,0,0,1,1.62-.66,2.86,2.86,0,0,1,2.25.84,4.81,4.81,0,0,1,.93,2.76A19.34,19.34,0,0,1,382.92,88a12.74,12.74,0,0,1,5.25-1.14,9.43,9.43,0,0,1,4.71,1.2,9,9,0,0,1,3.51,3.9,14.22,14.22,0,0,1,1.26,3.57,32.23,32.23,0,0,1,.6,4.11q.06,1,.12,1.89t.09,2q0,1,0,2.37V109q0,1.92-.06,3.6a16.48,16.48,0,0,1-.33,2.91,3.93,3.93,0,0,1-.93,1.92,2.37,2.37,0,0,1-1.8.69q-2.76,0-2.88-2.64V113.9q0-1.35,0-3.15t-.06-3.66q0-1.86-.09-3.06-.06-1-.15-2.07t-.24-2.25q-.15-1.14-.39-2.19a11.05,11.05,0,0,0-.6-1.89,4.41,4.41,0,0,0-2.1-2.52A6.78,6.78,0,0,0,386.13,92.57Z"/><path class="cls-1" d="M417.27,126.35a9.51,9.51,0,0,0,4.77-1.11,8.44,8.44,0,0,0,3.15-3.18,15.05,15.05,0,0,0,1.71-5,38.29,38.29,0,0,0,.51-6.57,9.4,9.4,0,0,1-1.56,3.24,8.54,8.54,0,0,1-2.37,2.13,9.86,9.86,0,0,1-3,1.17,16.57,16.57,0,0,1-3.48.36,17.17,17.17,0,0,1-5.22-.78,11.31,11.31,0,0,1-4.29-2.46,11.89,11.89,0,0,1-2.91-4.29,16.37,16.37,0,0,1-1.08-6.27,19.41,19.41,0,0,1,1-6.51A14.54,14.54,0,0,1,407.58,92a13.87,13.87,0,0,1,4.89-3.36,17,17,0,0,1,6.6-1.2,15.41,15.41,0,0,1,3.51.36,12.49,12.49,0,0,1,2.73,1,9.48,9.48,0,0,1,2.13,1.44,16.13,16.13,0,0,1,1.71,1.8,18.18,18.18,0,0,1,3.3,6.81,38,38,0,0,1,1,9.45,52.12,52.12,0,0,1-.69,8.34,25.29,25.29,0,0,1-2.49,7.71,15.38,15.38,0,0,1-5,5.64,14.08,14.08,0,0,1-8.16,2.19q-.9,0-2-.09t-2.28-.27a18.31,18.31,0,0,1-2.31-.51,9.86,9.86,0,0,1-2.1-.87,12.29,12.29,0,0,1-1.92-1.26,2.44,2.44,0,0,1-.72-2,4.23,4.23,0,0,1,.51-2.07,1.85,1.85,0,0,1,1.77-.93,3,3,0,0,1,1.32.36,18.16,18.16,0,0,0,1.77.75,23.15,23.15,0,0,0,2.52.75A15.23,15.23,0,0,0,417.27,126.35Zm.3-14.4a8.49,8.49,0,0,0,4-.87,7.77,7.77,0,0,0,2.7-2.31,10.35,10.35,0,0,0,1.56-3.24,13.15,13.15,0,0,0,.51-3.6,12.23,12.23,0,0,0-.39-3,8.27,8.27,0,0,0-1.29-2.79,6.55,6.55,0,0,0-2.46-2,9.86,9.86,0,0,0-10.29,1.62q-2.43,2.4-2.43,7.08a9.79,9.79,0,0,0,2.16,6.78A7.59,7.59,0,0,0,417.57,112Z"/><path class="cls-1" d="M39.8,88.77c-.09-.66-.15-1.37-.18-2.15s0-1.5,0-2.17,0-1.58.1-2.38a8.88,8.88,0,0,1,.6-2.66,5.92,5.92,0,0,1,.53-1,3.79,3.79,0,0,1,.75-.85,3.86,3.86,0,0,1,1-.61A3.71,3.71,0,0,1,44,76.72a3.82,3.82,0,0,1,1.75.57,4.67,4.67,0,0,1,.68.56,3.59,3.59,0,0,1,.65.84,6.05,6.05,0,0,1,.53,1.17A8.56,8.56,0,0,1,48,81.4a30.27,30.27,0,0,1,.21,3.18c0,1,0,1.88,0,2.65s-.11,1.7-.19,2.47a6.82,6.82,0,0,1-.62,2.09,7.21,7.21,0,0,1-.51.76,3.2,3.2,0,0,1-.7.67,3.13,3.13,0,0,1-.93.47,4,4,0,0,1-1.2.16,3.58,3.58,0,0,1-1.32-.22,3.79,3.79,0,0,1-1-.59,3.19,3.19,0,0,1-.74-.82,5.35,5.35,0,0,1-.52-.93A8.79,8.79,0,0,1,39.8,88.77Z"/><path class="cls-1" d="M75.69,93.83a4.44,4.44,0,0,1-1.86-.35,3.92,3.92,0,0,1-1.26-.87,3.66,3.66,0,0,1-.77-1.17,7.34,7.34,0,0,1-.4-1.2,6,6,0,0,1-.16-1c0-.28,0-.45,0-.52,0,.12,0,.32-.11.61a7.33,7.33,0,0,1-.27,1,8,8,0,0,1-.52,1.19,4.2,4.2,0,0,1-.84,1.14,4.08,4.08,0,0,1-1.24.85,3.85,3.85,0,0,1-1.7.34,3.94,3.94,0,0,1-2.12-.56,6.76,6.76,0,0,1-1.5-1.26,7.75,7.75,0,0,1-1.2-1.85,15.62,15.62,0,0,1-1-3c-.24-1-.41-1.92-.52-2.74A24.74,24.74,0,0,1,60,81.71,7.83,7.83,0,0,1,60.05,80a6,6,0,0,1,.38-1.29,3.81,3.81,0,0,1,.59-.93,3.56,3.56,0,0,1,.7-.61,3.87,3.87,0,0,1,1.94-.65,3.91,3.91,0,0,1,1.87.42A4.28,4.28,0,0,1,66.88,78a6.32,6.32,0,0,1,.89,1.51,10.64,10.64,0,0,1,.51,1.64,12.12,12.12,0,0,1,.25,1.53c0,.47.08.85.1,1.14A3.83,3.83,0,0,1,69,82a2.7,2.7,0,0,1,.84-.94,2.21,2.21,0,0,1,1.2-.33,2.36,2.36,0,0,1,.92.17,2.5,2.5,0,0,1,.69.42,2.68,2.68,0,0,1,.49.57,4,4,0,0,1,.32.66,6.17,6.17,0,0,1,.29,1.8A16,16,0,0,1,74,81.74a10.78,10.78,0,0,1,.48-1.94,6.67,6.67,0,0,1,.68-1.39,4.94,4.94,0,0,1,.8-.92,3.68,3.68,0,0,1,2.15-1,4.56,4.56,0,0,1,1.45.22,4,4,0,0,1,1.08.57,4.18,4.18,0,0,1,.76.82,4.94,4.94,0,0,1,.51,1,7.9,7.9,0,0,1,.5,2.64,22.38,22.38,0,0,1-.26,3.55,25.82,25.82,0,0,1-.6,2.74,18.65,18.65,0,0,1-.87,2.38,6.18,6.18,0,0,1-.68,1.2,6.67,6.67,0,0,1-.78.87,5.2,5.2,0,0,1-.83.63,5.3,5.3,0,0,1-.8.39A5.09,5.09,0,0,1,75.69,93.83Z"/><path class="cls-1" d="M88.93,81.33a5.43,5.43,0,0,1,2.09.13,4.13,4.13,0,0,1,1.28.61,2.24,2.24,0,0,1,.66.71c.13.23.2.37.22.42a2.55,2.55,0,0,1,.13-.35,3.14,3.14,0,0,1,.45-.71,2.81,2.81,0,0,1,.84-.68,2.63,2.63,0,0,1,1.32-.3,2.52,2.52,0,0,1,1.17.26,3.17,3.17,0,0,1,.89.7,4.39,4.39,0,0,1,.65,1,8.18,8.18,0,0,1,.43,1.13,12.07,12.07,0,0,1,.46,3,15.21,15.21,0,0,1,0,2.39,10,10,0,0,1-.35,1.75,4.79,4.79,0,0,1-.54,1.22,3.28,3.28,0,0,1-.65.78,2.51,2.51,0,0,1-1.85.65,2.79,2.79,0,0,1-1.22-.22,2.71,2.71,0,0,1-.94-.65,2.44,2.44,0,0,1-.57-1.38A2.66,2.66,0,0,1,92.48,93a4.34,4.34,0,0,1-1.48.74,6,6,0,0,1-2.55.12,5.45,5.45,0,0,1-2.3-.76,4.69,4.69,0,0,1-.85-.68,4.15,4.15,0,0,1-.75-1,5.75,5.75,0,0,1-.51-1.4,7.59,7.59,0,0,1-.19-1.82A8.91,8.91,0,0,1,84.3,85a7.3,7.3,0,0,1,.58-1.24,4.81,4.81,0,0,1,.91-1.12,5.16,5.16,0,0,1,1.32-.85A5.59,5.59,0,0,1,88.93,81.33ZM92.12,87a.93.93,0,0,0-.7.31.84.84,0,0,0-.26.7,1,1,0,0,0,.3.69,1.05,1.05,0,0,0,.66.19,1,1,0,0,0,.68-.24.84.84,0,0,0,.26-.64,1.12,1.12,0,0,0-.24-.7A.82.82,0,0,0,92.12,87Z"/><path class="cls-1" d="M116.8,88.12a8.71,8.71,0,0,1-.27,2.57,6.25,6.25,0,0,1-.37,1,3.46,3.46,0,0,1-.61.91,4,4,0,0,1-.9.74,3.49,3.49,0,0,1-1.24.43,5.77,5.77,0,0,1-1,0,5.69,5.69,0,0,1-1-.2,2.89,2.89,0,0,1-1-.53,3.22,3.22,0,0,1-.78-1,3.72,3.72,0,0,1-.37-1.58c-.07-.63-.13-1.19-.19-1.68s-.17-.81-.27-1.17-.22-.54-.38-.54c0,.6.07,1.11.08,1.54s0,.8,0,1.1,0,.66-.05.92a3.91,3.91,0,0,1-.55,1.58,3.7,3.7,0,0,1-1.07,1.1,3.34,3.34,0,0,1-2,.53,3.87,3.87,0,0,1-1.07-.13,3,3,0,0,1-.83-.37,3.73,3.73,0,0,1-.64-.54,3.68,3.68,0,0,1-.46-.62,5,5,0,0,1-.65-1.67A12.55,12.55,0,0,1,101,89c-.06-.48-.1-1.06-.12-1.73A21.56,21.56,0,0,1,101,85a5.14,5.14,0,0,1,.55-1.83,4.19,4.19,0,0,1,.43-.67,3.32,3.32,0,0,1,.63-.61,3.17,3.17,0,0,1,.83-.46,4,4,0,0,1,1.06-.23,6.11,6.11,0,0,1,1.74.1,3.79,3.79,0,0,1,1.12.44,2.44,2.44,0,0,1,.66.6c.15.22.29.42.4.61a7.69,7.69,0,0,1,3.93-1.1,4.45,4.45,0,0,1,1.49.33,3.55,3.55,0,0,1,1.36,1,6.32,6.32,0,0,1,1,1.91A12,12,0,0,1,116.8,88.12Z"/><path class="cls-1" d="M121.81,79.65a5,5,0,0,1,.1-2.11,4,4,0,0,1,.33-.77,2.41,2.41,0,0,1,.6-.68,3.3,3.3,0,0,1,.94-.46,4.3,4.3,0,0,1,1.32-.18,4.21,4.21,0,0,1,1.3.18,2.78,2.78,0,0,1,.92.49,2.87,2.87,0,0,1,.61.7,4.56,4.56,0,0,1,.39.76,6,6,0,0,1,.24,2.12,6.92,6.92,0,0,1,2.28.21,4.28,4.28,0,0,1,.84.35,3.06,3.06,0,0,1,.73.57,2.62,2.62,0,0,1,.51.86,3.27,3.27,0,0,1,.2,1.2,3.07,3.07,0,0,1-.18,1.11,2.62,2.62,0,0,1-.49.81,3,3,0,0,1-.7.55,4.31,4.31,0,0,1-.77.34,6.34,6.34,0,0,1-2.14.23,16.74,16.74,0,0,1,0,4,9.12,9.12,0,0,1-.3,1.47,4.45,4.45,0,0,1-.56,1.27,2.9,2.9,0,0,1-.91.9,2.45,2.45,0,0,1-1.32.35,3.51,3.51,0,0,1-2.32-.66,3.43,3.43,0,0,1-1.08-1.79,9,9,0,0,1-.25-2.59c0-1,.09-2,.17-3.1a7.27,7.27,0,0,1-2.43,0,4.54,4.54,0,0,1-.88-.29,2.58,2.58,0,0,1-.77-.53,2.26,2.26,0,0,1-.54-.84,3.15,3.15,0,0,1-.2-1.22,2.76,2.76,0,0,1,.44-1.64,3.27,3.27,0,0,1,1.11-1,4.85,4.85,0,0,1,1.43-.49A8,8,0,0,1,121.81,79.65Z"/><path class="cls-1" d="M90.23,103.65a5.22,5.22,0,0,1,.09-2.11,4,4,0,0,1,.34-.77,2.14,2.14,0,0,1,.6-.68,3.3,3.3,0,0,1,.94-.46,4.82,4.82,0,0,1,2.61,0,2.74,2.74,0,0,1,.93.49,3.1,3.1,0,0,1,.61.7,3.85,3.85,0,0,1,.38.76A5.53,5.53,0,0,1,97,103.7a6.87,6.87,0,0,1,2.28.21,3.83,3.83,0,0,1,.84.35,2.88,2.88,0,0,1,.73.57,2.64,2.64,0,0,1,.52.86,3.28,3.28,0,0,1,.19,1.2,3.07,3.07,0,0,1-.18,1.11,2.44,2.44,0,0,1-.49.81,2.83,2.83,0,0,1-.7.55,4.23,4.23,0,0,1-.76.34,6.37,6.37,0,0,1-2.14.23,16.74,16.74,0,0,1,0,4,9.12,9.12,0,0,1-.3,1.47,4.75,4.75,0,0,1-.56,1.27,2.93,2.93,0,0,1-.92.9,2.4,2.4,0,0,1-1.32.35,3.5,3.5,0,0,1-2.31-.66,3.43,3.43,0,0,1-1.08-1.79,8.7,8.7,0,0,1-.25-2.59c0-1,.08-2,.16-3.1a7.21,7.21,0,0,1-2.42,0,4.87,4.87,0,0,1-.89-.29,2.71,2.71,0,0,1-.77-.53,2.53,2.53,0,0,1-.54-.84,3.35,3.35,0,0,1-.2-1.22,2.84,2.84,0,0,1,.44-1.64,3.3,3.3,0,0,1,1.12-1,4.75,4.75,0,0,1,1.43-.49A7.8,7.8,0,0,1,90.23,103.65Z"/><path class="cls-1" d="M118.55,112.12a9.07,9.07,0,0,1-.26,2.57,7.47,7.47,0,0,1-.38,1,3.23,3.23,0,0,1-.61.91,4,4,0,0,1-.9.74,3.43,3.43,0,0,1-1.24.43,5.77,5.77,0,0,1-1,0,5.69,5.69,0,0,1-1-.2,3,3,0,0,1-1-.53,3.22,3.22,0,0,1-.78-1,3.87,3.87,0,0,1-.37-1.58c-.06-.63-.13-1.19-.19-1.68s-.17-.81-.27-1.17-.22-.54-.38-.54c0,.6.08,1.11.08,1.54s0,.8,0,1.1,0,.66-.05.92a4,4,0,0,1-.55,1.6,3.43,3.43,0,0,1-1.07,1.12,4.09,4.09,0,0,1-3.92,0,4,4,0,0,1-1.1-1.15,4.73,4.73,0,0,1-.58-1.67c-.13-1-.22-2-.29-3.2,0-1-.06-2.18,0-3.54a44.1,44.1,0,0,1,.32-4.45,5,5,0,0,1,.53-1.92,3.16,3.16,0,0,1,.43-.69,2.92,2.92,0,0,1,.65-.61,3.49,3.49,0,0,1,.89-.42,4,4,0,0,1,1.15-.15,3.66,3.66,0,0,1,1.87.5,3.59,3.59,0,0,1,1.24,1.37,6.91,6.91,0,0,1,.66,2.14,15.54,15.54,0,0,1,.12,2.8,6.79,6.79,0,0,1,3.74-.81,4.05,4.05,0,0,1,1.43.43,3.71,3.71,0,0,1,1.28,1.12,6.77,6.77,0,0,1,1,2A13.36,13.36,0,0,1,118.55,112.12Z"/><path class="cls-1" d="M127.93,112.67a3.13,3.13,0,0,0,1.47.68c.51.09,1,.17,1.42.23a3.49,3.49,0,0,1,1.13.36,1.43,1.43,0,0,1,.59,1.11,2.43,2.43,0,0,1-.12.93,2.91,2.91,0,0,1-.49.83,2.61,2.61,0,0,1-1.09.71,10.24,10.24,0,0,1-2.28.43,13.92,13.92,0,0,1-2.4,0,10,10,0,0,1-2.81-.74,5.22,5.22,0,0,1-1.71-1.22,6.63,6.63,0,0,1-.61-.78,6,6,0,0,1-.53-1,6.72,6.72,0,0,1-.36-1.26,6.81,6.81,0,0,1-.08-1.53,8.89,8.89,0,0,1,.5-2.48,9.26,9.26,0,0,1,.48-1,6.47,6.47,0,0,1,.71-1,5.69,5.69,0,0,1,1-.89,5,5,0,0,1,1.3-.67,9.65,9.65,0,0,1,2.5-.39q.52,0,1.14.06a6.42,6.42,0,0,1,1.22.24,6.83,6.83,0,0,1,1.24.52,5.92,5.92,0,0,1,1.2.84,4.32,4.32,0,0,1,.67.86,4.66,4.66,0,0,1,.46,1.05,5.1,5.1,0,0,1,.21,1.45,2.5,2.5,0,0,1-1.52,2.45,4.41,4.41,0,0,1-1.54.37A6.42,6.42,0,0,1,127.93,112.67Zm-.62-3a1,1,0,0,0-.71.31.84.84,0,0,0-.25.7.94.94,0,0,0,.3.7,1.05,1.05,0,0,0,.66.19,1,1,0,0,0,.67-.24.82.82,0,0,0,.26-.65,1.14,1.14,0,0,0-.24-.7A.84.84,0,0,0,127.31,109.62Z"/></g></svg>